<svg version="1" xmlns="http://www.w3.org/2000/svg" width="933.333" height="933.333" viewBox="0 0 700.000000 700.000000"><path d="M327.8.4c-.1.2-4.1.6-8.8 1-4.7.4-9.6.8-11 1.1-1.4.2-4.5.7-7 .9-2.5.3-5.4.7-6.5 1-1.1.2-4 .7-6.5 1-2.5.3-6 1-7.7 1.5-1.8.5-3.3.8-3.3.6 0-.3-1.1 0-2.6.5-1.4.6-3.9 1.2-5.7 1.5-9.7 1.8-40.3 11.4-50.2 16-2.7 1.2-6 2.5-7.3 2.9-2.4.8-30 14.7-36.4 18.4-7.2 4.1-27.5 17.4-31.3 20.4-.5.4-4.8 3.8-9.5 7.5C69.7 125.2 23.1 199.8 7.5 277.5c-.8 3.8-1.6 7.9-1.8 9-.3 1.1-.8 4-1.2 6.5-.3 2.5-.9 5.8-1.1 7.4-.3 1.6-.7 4.8-.9 7-.2 2.3-.7 7.5-1.2 11.6-1.6 14.6-.8 61.7 1.2 72.1.2 1.1.6 4.6.9 7.8 1.8 18.9 10.5 52.3 20.1 77.1 25.1 64.5 68 119.7 123.5 158.9 6.3 4.5 12 8.5 12.5 8.9.6.4 2.1 1.3 3.5 2s5.6 3.2 9.5 5.6c3.8 2.5 7.3 4.2 7.7 4 .5-.3.8-.1.8.3 0 .9 12.4 7.5 13.6 7.2.4 0 1 .3 1.3.8 1.3 1.8 11.9 6.3 39.1 16.8 6.5 2.5 20.9 6.7 23.5 6.9 1.4 0 2.5.4 2.5.7 0 .5 5.4 1.9 13 3.3.8.2 2.2.6 3 .9 1.9.7 20.1 3.8 31 5.2 20.4 2.7 62.6 2.7 84 0 3.5-.4 18.1-2.6 20.5-3.1 1.1-.2 3.6-.7 5.5-1 1.9-.3 6.2-1.3 9.5-2.1s6.7-1.6 7.5-1.8c17-3.4 55.9-18.1 76-28.7 37.3-19.8 72-46.4 97.2-74.6 2.8-3.1 6.5-7.3 8.3-9.3 9.8-10.8 27.3-35.8 37.5-53.4 4.7-8.2 18-34.8 18-36.1 0-.3.8-2.4 1.9-4.7 2.3-5.2 7.1-18.6 10.4-29.2 6.5-20.7 11.3-44.5 14.3-71.5.2-1.9.6-13.2.8-25 .3-15.7.1-21.7-.7-22.2-.9-.6-.9-.8 0-.8.7 0 1-1 .8-2.3-.2-1.2-.6-6-.9-10.7-.9-12.9-2.3-23.7-4.2-32.7-.3-1.6-.7-4-.9-5.5-1.9-12.5-11.9-47.5-17-59.3-.7-1.7-3.2-7.5-5.5-13-19.1-46-57.4-97.1-96-128.5-3-2.5-5.7-4.8-6-5.1-1.8-1.9-25.8-19.2-31.2-22.4-.9-.5-4.8-2.9-8.5-5.1-34-20.7-79.2-37.6-117.3-43.9-5.2-.9-10.6-1.8-12-2-1.4-.3-5.4-.7-9-1.1-3.6-.3-7.8-.8-9.5-1.1-3.3-.5-53.1-1.3-53.7-.9zm47.4 30c5.4.4 10.5.9 11.5 1 1 .2 4.1.7 6.8 1 52.2 6.8 105.1 28.5 147.9 60.6 6.2 4.7 14.2 11 17.7 14 7.5 6.4 25.3 24.1 32.4 32 7.6 8.5 23.3 29.8 30.4 41.2 6.5 10.4 19.2 34.4 22.6 42.8 1 2.5 2.6 6.3 3.5 8.5 3.2 7.4 11.3 32.1 12.6 38.4.4 2.1 2.5 10.6 4 16.6.3 1.1.7 3.8.9 6 .3 2.2.7 5.1 1 6.5 1.3 5.9 1.5 7.9 2.1 15.7.5 5.6 1 8 1.8 7.6.8-.4.8-.3 0 .6-.6.6-.8 3.3-.4 6.6.8 6.9.5 36.2-.4 47.3-.7 8.7-1 11-2 17.9-.4 2.3-.9 5.6-1.1 7.2-.2 1.7-.6 3.8-.9 4.8-.3 1-.8 3.4-1 5.3-1.2 8-6.2 27-10.7 40.1-1.7 5-3.2 9.7-3.3 10.3-.1.6-1.2 3.2-2.4 5.8-1.2 2.6-2.2 5-2.2 5.4 0 .3-3.1 7-6.9 14.8-16.7 34.3-36.2 61.8-62.6 88.1-10.5 10.5-24.5 22.8-33 29-2.2 1.7-4.2 3.2-4.5 3.5-.3.3-5 3.5-10.5 7.2-31.3 20.7-62 34.6-96.6 43.7-17.1 4.5-25.3 6.1-44.9 8.6-21.7 2.8-62 2.3-82-1-1.4-.2-4.4-.6-6.7-.9-2.4-.2-4.6-.7-5.1-1-.5-.3-2.7-.6-5-.7-2.3-.2-4.2-.6-4.2-1 0-.3-1.7-.9-3.7-1.2-5.7-.9-9.6-1.7-11.3-2.3-1.2-.5-8.6-2.6-13.5-3.8-.5-.2-1.7-.5-2.5-.8-.8-.3-4.4-1.6-8-2.8-14.8-5-39.2-16.1-53.5-24.2-5.6-3.2-16.8-10.1-18-11-.5-.5-4.6-3.4-9-6.5-34.7-24.4-68.1-60.4-89.7-96.8-7-11.7-18.5-35-22.3-45-6.3-16.5-12.9-37.2-15-47.5-2.6-12.3-4.5-22.7-5-27.5-.4-3.3-.9-7.1-1.1-8.5-.8-5.4-1.8-24.1-1.8-35.5 0-61.1 16.4-118.8 48.5-170.4 18.5-29.8 44.4-58.7 72.4-81C178.9 76.5 212.6 58 246 46.7c11.3-3.9 35-10.3 41.5-11.3 2.2-.3 5.8-.9 8-1.4 2.2-.5 6.7-1.2 10-1.5 3.3-.4 7.1-.8 8.5-1.1 1.4-.2 7.2-.7 13-1 5.8-.4 10.6-.7 10.7-.8.5-.5 28.3.2 37.5.8z"/><path d="M481 124.5c-16.2 3-35.1 6.7-61.6 12.1-3.4.7-50.7 10.2-53.4 10.8-1.4.3-7 1.4-12.5 2.5s-10.9 2.2-12 2.5c-2.5.6-16.2 3.4-19.5 4-2.1.4-24.2 5-29.1 6.1-.9.2-3.2.6-5 .9-12.7 2.2-19.5 5.9-23 12.7-2 3.9-2 5.9-2.5 95.7-.3 50.4-.7 105.2-.9 121.7-.2 16.5-.4 34.5-.4 40.1-.1 16.7-3 19.1-29.6 24.8-33.2 7.1-46.1 12.2-56 22.1-10.2 10.1-14.6 21.1-14.4 36 .4 34 24.1 52.5 61 47.6 16.7-2.2 28-6 37.5-12.7 12.1-8.5 20.7-21.5 21.9-33.5 2-18.4 2.9-58.6 4-166.7.8-82.5.7-78.2 3.3-81.9 2.8-3.9 5.9-5.1 21.2-7.9 1.4-.3 10.2-2.1 19.5-4 15.7-3.2 18.4-3.7 24-4.8 1.1-.2 9.8-2 19.3-4 9.6-2 18.8-3.9 20.5-4.2 1.8-.3 5-.9 7.2-1.4 2.2-.5 5.4-1.1 7-1.4 1.7-.3 3.9-.8 5-1 23.5-4.8 55.1-10.9 58.5-11.2 3.9-.5 5.1-.1 8.8 2.6 2.3 1.8 4.3 3.9 4.3 4.8.6 7 .8 23.4.8 84.7.1 38.5-.2 71.6-.5 73.5-.3 1.9-.6 4.1-.6 4.8-.1.7-1.6 2.8-3.4 4.6-3 3.1-9.3 5.8-16.4 7-1.4.3-5.6 1.2-9.5 2.1-3.8.9-7.9 1.9-9 2.1-1.1.2-3.3.6-5 1-16.1 3.1-34 11.2-42 18.8-16.9 16.1-20.3 42.9-8 62.2 6.9 10.8 18.4 19.1 29.1 21.1 9.7 1.7 29.4.5 41.5-2.6 9.9-2.5 13.6-4.1 20.6-8.9 9.2-6.3 16.1-14.4 20.7-24.6 5.5-12 5.5-12.2 5.6-73.4.2-107.8.2-242.8 0-260.2-.2-21-1.2-24.5-6.9-25.9-5-1.2-6-1.1-20.1 1.4z"/></svg>